<svg width="278" height="148" viewBox="0 0 278 148" fill="none" xmlns="http://www.w3.org/2000/svg">
<g filter="url(#filter0_d_74_5)">
<rect x="20" y="41.9327" width="112.095" height="34.3648" transform="rotate(-7.14 20 41.9327)" fill="#FF9729"/>
<rect x="20.5583" y="42.3667" width="111.095" height="33.3648" transform="rotate(-7.14 20.5583 42.3667)" stroke="black"/>
</g>
<path d="M38.7985 60.5919C38.7658 60.3303 38.6959 60.1029 38.5891 59.9096C38.488 59.7155 38.3281 59.5466 38.1093 59.4028C37.8905 59.2589 37.591 59.1311 37.2109 59.0193C36.8358 58.9009 36.3616 58.792 35.7881 58.6926C35.1602 58.5823 34.5762 58.4458 34.0362 58.2832C33.5012 58.114 33.0259 57.9019 32.6101 57.6469C32.1936 57.3861 31.8559 57.0711 31.5971 56.702C31.3375 56.327 31.175 55.8779 31.1094 55.3547C31.0446 54.8373 31.0932 54.3529 31.2551 53.9015C31.4229 53.4494 31.6881 53.0442 32.0506 52.6858C32.4183 52.3208 32.8677 52.0195 33.3989 51.7817C33.9294 51.5381 34.5289 51.3744 35.1975 51.2906C36.1394 51.1727 36.9723 51.2455 37.6962 51.5091C38.426 51.772 39.0107 52.1741 39.4506 52.7154C39.8962 53.256 40.1635 53.881 40.2523 54.5903L38.0808 54.8623C38.0284 54.4437 37.892 54.0858 37.6717 53.7886C37.4565 53.4849 37.157 53.2626 36.7733 53.1217C36.3953 52.9801 35.9331 52.9435 35.3866 53.0119C34.8691 53.0768 34.4487 53.2091 34.1254 53.4091C33.802 53.609 33.5728 53.8533 33.4377 54.1418C33.3026 54.4304 33.2562 54.7433 33.2984 55.0805C33.3283 55.3189 33.4108 55.53 33.546 55.7138C33.6805 55.8918 33.8717 56.0509 34.1196 56.1911C34.3667 56.3255 34.6709 56.4439 35.0321 56.5463C35.3933 56.6487 35.8149 56.7376 36.2968 56.813C37.0265 56.9342 37.669 57.0899 38.2243 57.2802C38.7788 57.4647 39.2506 57.6949 39.6395 57.971C40.0283 58.2471 40.3355 58.5777 40.5609 58.9628C40.7856 59.3421 40.9299 59.7876 40.994 60.2992C41.061 60.8341 41.0139 61.3301 40.8527 61.7873C40.6907 62.2387 40.4281 62.6406 40.0648 62.9932C39.7066 63.3392 39.2587 63.6286 38.7209 63.8613C38.1882 64.0875 37.5818 64.2432 36.9016 64.3284C36.2911 64.4048 35.6792 64.3988 35.0658 64.3103C34.4582 64.2211 33.8923 64.041 33.3683 63.7701C32.8435 63.4933 32.4073 63.1228 32.0598 62.6584C31.7115 62.1883 31.4952 61.616 31.4107 60.9416L33.5996 60.6674C33.6514 61.0802 33.7652 61.4232 33.9411 61.6964C34.1229 61.9689 34.3533 62.1822 34.6325 62.3362C34.9108 62.4844 35.2241 62.5809 35.5722 62.6259C35.9262 62.6702 36.2979 62.6679 36.6875 62.6191C37.1991 62.555 37.6173 62.4288 37.9421 62.2405C38.2727 62.0514 38.5089 61.8152 38.6505 61.5317C38.7922 61.2482 38.8415 60.935 38.7985 60.5919ZM52.6279 55.3785L52.7153 56.0762C52.8355 57.0355 52.8183 57.9116 52.6637 58.7045C52.5091 59.4975 52.2327 60.1905 51.8346 60.7837C51.4423 61.3761 50.9413 61.8552 50.3317 62.2209C49.7213 62.5808 49.0236 62.8099 48.2388 62.9082C47.4597 63.0058 46.73 62.9555 46.0497 62.7573C45.3745 62.5525 44.7679 62.2122 44.23 61.7363C43.692 61.2604 43.2446 60.658 42.8875 59.9292C42.5363 59.1996 42.3006 58.3551 42.1804 57.3958L42.093 56.6982C41.9729 55.7389 41.9934 54.8653 42.1545 54.0774C42.3149 53.2838 42.5942 52.5903 42.9923 51.9972C43.3955 51.3975 43.8994 50.9181 44.5039 50.5589C45.1136 50.1932 45.808 49.9615 46.587 49.8639C47.3719 49.7656 48.1049 49.8185 48.7859 50.0225C49.4662 50.2207 50.0728 50.5611 50.6056 51.0435C51.1377 51.5201 51.5765 52.1236 51.9219 52.8539C52.2724 53.5777 52.5077 54.4192 52.6279 55.3785ZM50.5263 56.3504L50.4368 55.6353C50.3479 54.926 50.1999 54.3097 49.9926 53.7865C49.7904 53.2567 49.5327 52.8255 49.2193 52.4927C48.9111 52.1534 48.5535 51.9147 48.1464 51.7767C47.7387 51.6329 47.2935 51.5913 46.811 51.6517C46.3284 51.7122 45.9102 51.862 45.5563 52.1012C45.2017 52.3346 44.914 52.6541 44.6932 53.0596C44.4774 53.4587 44.334 53.9402 44.263 54.5042C44.1912 55.0624 44.1997 55.6961 44.2885 56.4054L44.3781 57.1205C44.467 57.8298 44.6154 58.449 44.8234 58.978C45.0314 59.5071 45.2928 59.9438 45.6075 60.2882C45.9274 60.6261 46.2883 60.8672 46.6902 61.0118C47.0915 61.1505 47.5333 61.1896 48.0159 61.1292C48.5043 61.068 48.9258 60.9207 49.2804 60.6873C49.6342 60.4481 49.9187 60.1261 50.1337 59.7212C50.348 59.3105 50.4878 58.8236 50.553 58.2603C50.6241 57.6963 50.6152 57.0597 50.5263 56.3504ZM56.2542 48.8301L57.8448 61.5278L55.6558 61.802L54.0653 49.1043L56.2542 48.8301ZM62.1303 53.7364L62.3477 55.4719L56.6093 56.1907L56.3919 54.4553L62.1303 53.7364ZM62.1583 48.0905L62.3767 49.8347L55.9146 50.6442L55.6961 48.9L62.1583 48.0905ZM69.3007 47.1958L70.8913 59.8935L68.7198 60.1655L67.1292 47.4679L69.3007 47.1958ZM73.2861 46.6966L73.5046 48.4408L63.3971 49.7069L63.1786 47.9627L73.2861 46.6966ZM79.5166 55.9165L80.8123 45.7538L82.1379 45.5878L82.3075 48.1441L80.8767 58.6427L79.4988 58.8153L79.5166 55.9165ZM76.3908 46.3077L79.6637 55.8184L80.2139 58.7257L78.7488 58.9092L74.2193 46.5797L76.3908 46.3077ZM86.2273 54.9696L87.0303 44.9749L89.2105 44.7018L87.8621 57.7676L86.397 57.9511L86.2273 54.9696ZM82.6524 45.5233L86.3919 55.0819L87.1121 57.8616L85.7342 58.0342L81.8017 48.2075L81.3443 45.6872L82.6524 45.5233ZM95.6056 45.6191L93.1906 57.1001L90.897 57.3874L94.0855 44.0912L95.5506 43.9076L95.6056 45.6191ZM100.159 56.2273L94.9777 45.6978L94.6 44.0267L96.0739 43.8421L102.461 55.9389L100.159 56.2273ZM99.3856 51.5409L99.603 53.2764L92.696 54.1416L92.4786 52.4061L99.3856 51.5409ZM102.292 43.0632L106.783 42.5006C107.748 42.3797 108.589 42.422 109.306 42.6275C110.022 42.833 110.597 43.198 111.029 43.7226C111.465 44.2407 111.736 44.9154 111.84 45.7468C111.919 46.3805 111.873 46.9532 111.701 47.4649C111.529 47.9766 111.251 48.4247 110.868 48.8093C110.485 49.188 110.011 49.5043 109.446 49.7581L108.824 50.1638L104.786 50.6696L104.551 48.9363L107.577 48.5572C108.101 48.4917 108.525 48.344 108.85 48.1143C109.176 47.8846 109.406 47.5989 109.54 47.2573C109.68 46.9091 109.724 46.5315 109.673 46.1246C109.618 45.6827 109.482 45.3099 109.267 45.0062C109.057 44.6959 108.764 44.4758 108.387 44.3458C108.01 44.21 107.548 44.1763 107.002 44.2448L104.699 44.5332L106.071 55.4866L103.882 55.7608L102.292 43.0632ZM111.13 54.853L107.433 49.5231L109.725 49.2271L113.453 54.4469L113.467 54.5602L111.13 54.853ZM123.226 51.575L123.443 53.3105L116.702 54.1549L116.485 52.4195L123.226 51.575ZM115.731 41.3797L117.321 54.0774L115.132 54.3516L113.542 41.6539L115.731 41.3797ZM121.636 46.0255L121.85 47.7348L115.99 48.4689L115.776 46.7596L121.636 46.0255ZM121.809 40.6183L122.028 42.3625L115.33 43.2015L115.112 41.4573L121.809 40.6183Z" fill="black"/>
<g filter="url(#filter1_d_74_5)">
<rect x="221.627" y="110.288" width="36.0012" height="24.5463" transform="rotate(-13.8514 221.627 110.288)" fill="#F8CB46"/>
<rect x="222.232" y="110.654" width="35.0012" height="23.5463" transform="rotate(-13.8514 222.232 110.654)" stroke="black"/>
</g>
<path d="M231.896 115.696L233.489 115.303L238.452 122.551L239.47 113.828L241.063 113.436L239.662 124.765L238.396 125.077L231.896 115.696ZM231.171 115.875L232.685 115.501L234.653 122.348L235.502 125.79L233.724 126.229L231.171 115.875ZM240.273 113.63L241.795 113.255L244.348 123.609L242.563 124.049L241.714 120.607L240.273 113.63ZM252.604 120.072L252.953 121.487L247.754 122.769L247.405 121.354L252.604 120.072ZM245.699 112.292L248.252 122.646L246.467 123.087L243.914 112.733L245.699 112.292Z" fill="black"/>
<g filter="url(#filter2_d_74_5)">
<rect x="43.7049" y="107.013" width="45.3338" height="24.5463" transform="rotate(18.196 43.7049 107.013)" fill="#FFD203"/>
<rect x="44.0238" y="107.644" width="44.3338" height="23.5463" transform="rotate(18.196 44.0238 107.644)" stroke="black"/>
</g>
<path d="M45.3056 126.922L43.1417 126.21L43.6108 124.83L45.7608 125.537C46.387 125.743 46.9561 125.778 47.4682 125.643C47.9849 125.51 48.4338 125.223 48.8149 124.783C49.2007 124.344 49.5094 123.773 49.7412 123.068L49.9219 122.518C50.1018 121.97 50.1985 121.465 50.212 121.002C50.2302 120.54 50.1659 120.126 50.0192 119.759C49.8772 119.394 49.6566 119.079 49.3575 118.817C49.063 118.555 48.6908 118.351 48.2409 118.203L45.9726 117.457L46.43 116.066L48.6983 116.811C49.3709 117.032 49.9482 117.348 50.4301 117.758C50.9136 118.164 51.2877 118.644 51.5525 119.199C51.8219 119.755 51.9689 120.364 51.9932 121.025C52.0176 121.685 51.9101 122.38 51.6707 123.108L51.4946 123.644C51.2552 124.372 50.9297 124.995 50.518 125.512C50.1064 126.03 49.6271 126.433 49.0801 126.721C48.5347 127.004 47.9417 127.166 47.301 127.207C46.6666 127.246 46.0014 127.15 45.3056 126.922ZM47.4389 116.397L44.1089 126.528L42.3624 125.954L45.6925 115.823L47.4389 116.397ZM58.3506 121.48L52.4376 129.266L50.6076 128.664L57.7506 119.787L58.9196 120.171L58.3506 121.48ZM57.997 131.093L57.8496 121.315L58.1611 119.922L59.337 120.308L59.8339 131.697L57.997 131.093ZM59.0859 127.288L58.6308 128.673L53.1201 126.861L53.5752 125.477L59.0859 127.288ZM67.5892 123.021L64.2591 133.152L62.5266 132.582L65.8567 122.451L67.5892 123.021ZM70.769 124.066L70.3115 125.458L62.2473 122.807L62.7047 121.415L70.769 124.066ZM74.9384 126.932L69.0253 134.718L67.1954 134.117L74.3384 125.239L75.5073 125.624L74.9384 126.932ZM74.5848 136.546L74.4374 126.768L74.7489 125.374L75.9248 125.761L76.4217 137.15L74.5848 136.546ZM75.6737 132.74L75.2185 134.125L69.7078 132.314L70.163 130.929L75.6737 132.74Z" fill="black"/>
<g filter="url(#filter3_d_74_5)">
<rect x="239.528" y="57.7854" width="20.4552" height="20.4552" transform="rotate(13.65 239.528 57.7854)" fill="#FFE67F"/>
<rect x="239.896" y="58.3893" width="19.4552" height="19.4552" transform="rotate(13.65 239.896 58.3893)" stroke="black"/>
</g>
<path d="M245.951 66.4236L241.73 73.0078L240.232 72.6441L245.366 65.1116L246.322 65.3439L245.951 66.4236ZM246.279 74.1126L245.542 66.324L245.702 65.1931L246.664 65.4268L247.782 74.4776L246.279 74.1126ZM246.906 71.0088L246.631 72.1419L242.121 71.0468L242.397 69.9137L246.906 71.0088ZM252.25 66.7833L250.236 75.0736L248.807 74.7265L250.82 66.4362L252.25 66.7833Z" fill="black"/>
<path d="M217.586 58.9319C217.735 59.1644 218.044 59.232 218.277 59.083L222.065 56.6545C222.297 56.5055 222.365 56.1962 222.216 55.9637C222.067 55.7312 221.758 55.6636 221.525 55.8126L218.158 57.9713L215.999 54.6038C215.85 54.3713 215.541 54.3036 215.308 54.4527C215.076 54.6017 215.008 54.9109 215.157 55.1434L217.586 58.9319ZM233.553 42.707L233.343 43.1609L233.553 42.707ZM233.553 54.571L233.415 55.0518L233.553 54.571ZM241.326 40.6614L241.616 40.2546L241.326 40.6614ZM218.007 58.6621L218.495 58.7689C218.569 58.4293 218.649 58.086 218.733 57.74L218.247 57.6219L217.761 57.5037C217.675 57.8573 217.594 58.2081 217.518 58.5552L218.007 58.6621ZM218.801 55.5566L219.28 55.6974C219.477 55.0259 219.692 54.3526 219.925 53.6847L219.453 53.5201L218.981 53.3555C218.742 54.0399 218.522 54.7292 218.321 55.4158L218.801 55.5566ZM220.213 51.5213L220.675 51.7123C220.945 51.0572 221.234 50.4158 221.541 49.7952L221.093 49.5737L220.644 49.3521C220.327 49.9944 220.029 50.6564 219.75 51.3302L220.213 51.5213ZM222.117 47.6959L222.545 47.9542C222.914 47.3428 223.302 46.7655 223.711 46.231L223.313 45.9275L222.916 45.6239C222.483 46.1909 222.074 46.7988 221.689 47.4377L222.117 47.6959ZM224.728 44.3254L225.076 44.6852C225.584 44.1943 226.115 43.7722 226.668 43.4291L226.404 43.0043L226.141 42.5794C225.52 42.9649 224.933 43.4327 224.381 43.9657L224.728 44.3254ZM228.351 42.1388L228.484 42.6206C229.108 42.4477 229.76 42.3705 230.442 42.4036L230.467 41.9042L230.491 41.4048C229.7 41.3665 228.942 41.4561 228.217 41.6569L228.351 42.1388ZM232.556 42.3096L232.397 42.7838C232.706 42.8871 233.021 43.0124 233.343 43.1609L233.553 42.707L233.762 42.253C233.409 42.0899 233.06 41.951 232.715 41.8355L232.556 42.3096ZM233.553 42.707L233.343 43.1609C233.678 43.3155 233.993 43.4726 234.29 43.6317L234.526 43.1911L234.763 42.7505C234.448 42.5814 234.114 42.4155 233.762 42.253L233.553 42.707ZM236.36 44.3644L236.054 44.7599C236.665 45.2327 237.139 45.7121 237.499 46.1876L237.898 45.8858L238.297 45.584C237.877 45.0294 237.338 44.4886 236.666 43.9689L236.36 44.3644ZM238.848 47.8183L238.362 47.9385C238.525 48.5967 238.516 49.2449 238.379 49.8634L238.867 49.9717L239.355 50.08C239.522 49.3241 239.536 48.5188 239.333 47.698L238.848 47.8183ZM238 51.9507L237.585 51.6729C237.201 52.2472 236.725 52.7513 236.222 53.1522L236.534 53.5432L236.846 53.9342C237.425 53.4723 237.972 52.8928 238.416 52.2286L238 51.9507ZM234.625 54.5495L234.504 54.0642C234.165 54.1485 233.891 54.1476 233.69 54.0902L233.553 54.571L233.415 55.0518C233.834 55.1714 234.294 55.1465 234.745 55.0348L234.625 54.5495ZM233.553 54.571L233.69 54.0902C233.613 54.0684 233.461 53.9657 233.296 53.606L232.841 53.8141L232.387 54.0223C232.595 54.4782 232.918 54.9096 233.415 55.0518L233.553 54.571ZM232.384 51.7252L232.882 51.6836C232.83 51.0588 232.823 50.3544 232.864 49.6065L232.364 49.5795L231.865 49.5524C231.823 50.3389 231.83 51.0896 231.886 51.7667L232.384 51.7252ZM232.595 47.4449L233.088 47.5241C233.198 46.8381 233.345 46.1485 233.529 45.4793L233.047 45.3468L232.565 45.2144C232.371 45.9211 232.216 46.6464 232.101 47.3656L232.595 47.4449ZM233.75 43.3197L234.209 43.518C234.496 42.8541 234.825 42.2522 235.196 41.7401L234.791 41.4471L234.385 41.1541C233.964 41.7374 233.6 42.406 233.291 43.1214L233.75 43.3197ZM236.329 39.9709L236.587 40.3993C237.116 40.081 237.699 39.9211 238.349 39.9609L238.38 39.4619L238.41 38.9628C237.545 38.9098 236.762 39.1268 236.072 39.5425L236.329 39.9709ZM240.411 40.0886L240.175 40.5294C240.45 40.6769 240.737 40.8555 241.035 41.0683L241.326 40.6614L241.616 40.2546C241.287 40.0193 240.964 39.8174 240.647 39.6477L240.411 40.0886ZM241.326 40.6614L241.035 41.0683C241.334 41.2817 241.618 41.504 241.89 41.734L242.213 41.3527L242.537 40.9714C242.244 40.7237 241.938 40.4843 241.616 40.2546L241.326 40.6614ZM243.797 42.9409L243.416 43.2637C243.892 43.8267 244.311 44.4167 244.68 45.0228L245.107 44.7627L245.534 44.5026C245.14 43.8554 244.691 43.223 244.179 42.618L243.797 42.9409ZM246.137 46.7567L245.678 46.9556C245.975 47.6405 246.221 48.3304 246.423 49.0107L246.903 48.8679L247.382 48.725C247.169 48.0105 246.91 47.2828 246.595 46.5577L246.137 46.7567ZM247.43 51.049L246.938 51.142C247.085 51.9163 247.183 52.6518 247.248 53.3221L247.745 53.2738L248.243 53.2255C248.175 52.5296 248.074 51.764 247.921 50.9561L247.43 51.049ZM247.87 55.5187L247.37 55.5267C247.378 56.026 247.371 56.3971 247.371 56.6373H247.871H248.371C248.371 56.4173 248.378 56.0198 248.37 55.5108L247.87 55.5187Z" fill="black"/>
<path d="M104.768 111.603C104.549 111.435 104.235 111.477 104.067 111.696L101.332 115.27C101.164 115.489 101.206 115.803 101.425 115.97C101.644 116.138 101.958 116.097 102.126 115.877L104.557 112.701L107.733 115.132C107.953 115.3 108.267 115.258 108.434 115.039C108.602 114.82 108.56 114.506 108.341 114.338L104.768 111.603ZM98.4256 125.344L98.468 124.846L98.4256 125.344ZM95.7693 134.5L95.9991 134.944L95.7693 134.5ZM104.464 112L103.968 112.066C104.013 112.402 104.053 112.746 104.087 113.095L104.584 113.047L105.082 112.998C105.047 112.637 105.006 112.282 104.96 111.934L104.464 112ZM104.714 115.151L104.215 115.164C104.232 115.854 104.223 116.548 104.182 117.229L104.681 117.259L105.18 117.289C105.223 116.576 105.232 115.854 105.214 115.139L104.714 115.151ZM104.443 119.354L103.95 119.268C103.829 119.964 103.664 120.624 103.451 121.229L103.923 121.395L104.395 121.561C104.629 120.894 104.806 120.18 104.935 119.439L104.443 119.354ZM102.988 123.277L102.577 122.991C102.197 123.537 101.747 123.977 101.218 124.293L101.475 124.722L101.731 125.152C102.4 124.752 102.95 124.207 103.398 123.562L102.988 123.277ZM99.4797 125.347L99.4368 124.849C99.1352 124.875 98.8128 124.875 98.468 124.846L98.4256 125.344L98.3832 125.842C98.7806 125.876 99.1603 125.877 99.5227 125.846L99.4797 125.347ZM98.4256 125.344L98.468 124.846C98.1434 124.818 97.8406 124.78 97.5585 124.732L97.4747 125.225L97.3909 125.718C97.7025 125.771 98.033 125.812 98.3832 125.842L98.4256 125.344ZM95.6549 124.693L95.8619 124.238C95.2507 123.96 94.8269 123.617 94.54 123.252L94.1469 123.561L93.7538 123.87C94.1522 124.377 94.7107 124.813 95.4479 125.148L95.6549 124.693ZM93.4916 121.806L93.9907 121.776C93.9577 121.225 94.0764 120.656 94.2921 120.142L93.831 119.948L93.3699 119.755C93.106 120.384 92.9488 121.106 92.9925 121.836L93.4916 121.806ZM94.9209 118.406L95.2396 118.791C95.478 118.594 95.6747 118.518 95.8039 118.509L95.7693 118.01L95.7348 117.511C95.3201 117.54 94.9298 117.749 94.6023 118.02L94.9209 118.406ZM95.7693 118.01L95.8039 118.509C95.7967 118.509 95.8356 118.506 95.9335 118.555C96.0277 118.603 96.1485 118.685 96.2924 118.812L96.6233 118.437L96.9542 118.063C96.7692 117.899 96.5778 117.76 96.3846 117.663C96.1951 117.567 95.9714 117.495 95.7348 117.511L95.7693 118.01ZM97.8555 119.958L97.4344 120.227C97.7428 120.709 98.0497 121.27 98.3316 121.887L98.7864 121.68L99.2413 121.472C98.941 120.814 98.6119 120.212 98.2767 119.688L97.8555 119.958ZM99.4868 123.51L99.0095 123.659C99.1947 124.253 99.3458 124.87 99.4496 125.497L99.9429 125.416L100.436 125.334C100.324 124.658 100.162 123.995 99.9642 123.361L99.4868 123.51ZM100.105 127.367L99.6053 127.365C99.6027 127.989 99.5412 128.606 99.4092 129.205L99.8975 129.312L100.386 129.42C100.535 128.744 100.602 128.055 100.605 127.369L100.105 127.367ZM99.2408 131.153L98.7961 130.924C98.5273 131.447 98.1834 131.946 97.7525 132.41L98.1189 132.75L98.4853 133.09C98.9796 132.558 99.3757 131.984 99.6855 131.381L99.2408 131.153ZM96.618 134.006L96.3443 133.587C96.094 133.751 95.8261 133.908 95.5395 134.056L95.7693 134.5L95.9991 134.944C96.3148 134.781 96.6121 134.607 96.8917 134.424L96.618 134.006ZM95.7693 134.5L95.5395 134.056C95.2316 134.215 94.9173 134.34 94.5984 134.434L94.7398 134.914L94.8813 135.393C95.2598 135.282 95.6334 135.133 95.9991 134.944L95.7693 134.5ZM92.543 135.155L92.5697 134.656C91.8832 134.619 91.1907 134.482 90.5114 134.273L90.3644 134.751L90.2174 135.228C90.9601 135.457 91.734 135.612 92.5162 135.654L92.543 135.155ZM88.3115 133.908L88.5386 133.463C87.869 133.121 87.2461 132.738 86.6961 132.353L86.4095 132.763L86.1229 133.172C86.7065 133.58 87.369 133.989 88.0844 134.354L88.3115 133.908ZM84.69 131.358L85.0402 131.001C84.8578 130.822 84.7155 130.666 84.6148 130.54C84.5645 130.477 84.5276 130.426 84.5022 130.386C84.4751 130.343 84.4687 130.326 84.4701 130.33L84 130.5L83.5299 130.67C83.5906 130.838 83.7107 131.011 83.8342 131.165C83.9668 131.331 84.138 131.517 84.3399 131.715L84.69 131.358Z" fill="black"/>
<path d="M159.766 7.23736L159.888 6.75258L159.766 7.23736ZM176.54 55.697C176.649 55.9508 176.943 56.0683 177.197 55.9596L181.333 54.1869C181.587 54.0781 181.705 53.7842 181.596 53.5304C181.487 53.2766 181.193 53.159 180.939 53.2678L177.263 54.8435L175.687 51.1669C175.578 50.9131 175.284 50.7955 175.03 50.9043C174.777 51.0131 174.659 51.307 174.768 51.5608L176.54 55.697ZM177 55.5L177.464 55.6857C177.711 55.0693 178.007 54.2848 178.326 53.3594L177.853 53.1965L177.38 53.0336C177.066 53.9438 176.776 54.713 176.536 55.3143L177 55.5ZM179.281 48.4589L179.765 48.5848C180.154 47.0892 180.524 45.4517 180.833 43.7162L180.341 43.6287L179.848 43.5412C179.545 45.2479 179.181 46.8596 178.797 48.3329L179.281 48.4589ZM180.992 38.7255L181.49 38.7682C181.63 37.1391 181.694 35.465 181.655 33.7749L181.155 33.7865L180.655 33.7981C180.693 35.4478 180.63 37.0854 180.493 38.6827L180.992 38.7255ZM180.721 28.8648L181.215 28.7864C180.953 27.1402 180.568 25.5043 180.032 23.906L179.558 24.0649L179.084 24.2239C179.6 25.7644 179.973 27.3459 180.227 28.9433L180.721 28.8648ZM177.547 19.5596L177.981 19.311C177.162 17.8819 176.184 16.5125 175.023 15.2266L174.652 15.5617L174.281 15.8967C175.392 17.1276 176.329 18.4386 177.114 19.8082L177.547 19.5596ZM170.984 12.2674L171.278 11.8635C169.99 10.9231 168.557 10.0601 166.968 9.28812L166.75 9.73784L166.531 10.1876C168.069 10.9347 169.45 11.7674 170.689 12.6713L170.984 12.2674ZM162.154 7.91652L162.306 7.44004C161.529 7.19294 160.723 6.96348 159.888 6.75258L159.766 7.23736L159.643 7.72213C160.459 7.92825 161.245 8.15221 162.002 8.393L162.154 7.91652ZM159.766 7.23736L159.888 6.75258C158.984 6.52424 158.072 6.33872 157.154 6.19303L157.076 6.68685L156.997 7.18067C157.887 7.32184 158.769 7.50141 159.643 7.72213L159.766 7.23736ZM151.604 6.27267L151.603 5.77267C149.758 5.77515 147.906 5.90964 146.061 6.15311L146.127 6.64881L146.192 7.14451C147.998 6.90613 149.807 6.77509 151.604 6.77267L151.604 6.27267ZM140.73 7.66249L140.613 7.1764C138.813 7.61002 137.035 8.12881 135.294 8.71075L135.452 9.18497L135.611 9.65919C137.328 9.08542 139.078 8.57482 140.847 8.14858L140.73 7.66249ZM130.312 11.1168L130.12 10.6552C128.381 11.379 126.698 12.1486 125.089 12.9384L125.31 13.3872L125.53 13.8361C127.122 13.0545 128.786 12.2936 130.504 11.5784L130.312 11.1168ZM120.45 15.9454L120.205 15.5095C118.48 16.4786 116.888 17.4384 115.46 18.3449L115.727 18.7671L115.995 19.1893C117.41 18.2917 118.987 17.3411 120.695 16.3813L120.45 15.9454ZM111.176 21.8435L110.883 21.4386C109.962 22.1057 109.22 22.6762 108.684 23.1122L109 23.5L109.316 23.8878C109.834 23.4661 110.56 22.9071 111.47 22.2485L111.176 21.8435Z" fill="black"/>
<path d="M188.905 109.876C188.709 109.681 188.393 109.681 188.198 109.876L185.016 113.058C184.82 113.254 184.82 113.57 185.016 113.766C185.211 113.961 185.528 113.961 185.723 113.766L188.551 110.937L191.38 113.766C191.575 113.961 191.891 113.961 192.087 113.766C192.282 113.57 192.282 113.254 192.087 113.058L188.905 109.876ZM188.551 118.412H188.051V119.196L188.762 118.866L188.551 118.412ZM200.006 113.094H200.506V112.31L199.796 112.64L200.006 113.094ZM200.006 127.003H199.506V127.796L200.222 127.455L200.006 127.003ZM188.551 110.23H188.051V111.253H188.551H189.051V110.23H188.551ZM188.551 113.298H188.051V115.344H188.551H189.051V113.298H188.551ZM188.551 117.389H188.051V118.412H188.551H189.051V117.389H188.551ZM188.551 118.412L188.762 118.866L189.716 118.422L189.506 117.969L189.295 117.515L188.341 117.959L188.551 118.412ZM191.415 117.083L191.625 117.536L193.535 116.65L193.324 116.196L193.114 115.743L191.204 116.629L191.415 117.083ZM195.233 115.31L195.444 115.763L197.353 114.877L197.142 114.423L196.932 113.97L195.023 114.856L195.233 115.31ZM199.052 113.537L199.262 113.99L200.217 113.547L200.006 113.094L199.796 112.64L198.841 113.083L199.052 113.537ZM200.006 113.094H199.506V114.253H200.006H200.506V113.094H200.006ZM200.006 116.571H199.506V118.889H200.006H200.506V116.571H200.006ZM200.006 121.208H199.506V123.526H200.006H200.506V121.208H200.006ZM200.006 125.844H199.506V127.003H200.006H200.506V125.844H200.006ZM200.006 127.003L200.222 127.455L201.122 127.025L200.906 126.574L200.691 126.123L199.791 126.552L200.006 127.003ZM202.706 125.715L202.922 126.166L204.722 125.307L204.506 124.856L204.291 124.404L202.491 125.263L202.706 125.715ZM206.306 123.996L206.522 124.448L208.322 123.589L208.106 123.137L207.891 122.686L206.091 123.545L206.306 123.996ZM209.906 122.278L210.122 122.729L211.922 121.87L211.707 121.419L211.491 120.968L209.691 121.827L209.906 122.278ZM213.507 120.56L213.722 121.011L215.522 120.152L215.307 119.701L215.091 119.25L213.291 120.109L213.507 120.56ZM217.107 118.842L217.322 119.293L218.222 118.863L218.007 118.412L217.791 117.961L216.891 118.39L217.107 118.842Z" fill="black"/>
<g filter="url(#filter4_d_74_5)">
<rect x="57.6376" y="62.3648" width="175.915" height="40.9105" fill="#E24430"/>
<rect x="58.1376" y="62.8648" width="174.915" height="39.9105" stroke="black"/>
</g>
<path d="M67.0495 94.183V72.231H83.1135L82.5375 76.839H73.0015V80.775H82.0575V85.223H73.0015V89.575H82.5695L83.1775 94.183H67.0495ZM86.2058 94.183V72.231H91.2618L97.6618 81.543L98.6858 83.495L98.8458 83.399V72.231H104.382V94.183H99.1978L92.6058 84.519L91.9018 83.143L91.7418 83.207V94.183H86.2058ZM116.648 94.503C115.346 94.503 114.141 94.2684 113.032 93.799C111.944 93.3084 110.994 92.6364 110.184 91.783C109.373 90.9084 108.744 89.8737 108.296 88.679C107.848 87.4844 107.624 86.1617 107.624 84.711V81.671C107.624 80.2417 107.858 78.9297 108.328 77.735C108.818 76.519 109.512 75.4844 110.408 74.631C111.304 73.7564 112.349 73.0844 113.544 72.615C114.76 72.1457 116.093 71.911 117.544 71.911H118.344C119.56 71.911 120.701 72.103 121.768 72.487C122.834 72.871 123.762 73.4257 124.552 74.151C125.362 74.855 125.992 75.7084 126.44 76.711C126.888 77.7137 127.112 78.8337 127.112 80.071H121.544C121.544 79.239 121.384 78.5564 121.064 78.023C120.765 77.4684 120.328 77.063 119.752 76.807C119.197 76.551 118.525 76.423 117.736 76.423C117.202 76.423 116.701 76.5084 116.232 76.679C115.784 76.8497 115.389 77.1164 115.048 77.479C114.728 77.8204 114.482 78.2364 114.312 78.727C114.141 79.2177 114.056 79.783 114.056 80.423V85.991C114.056 86.631 114.141 87.1964 114.312 87.687C114.482 88.1777 114.728 88.6044 115.048 88.967C115.389 89.3084 115.784 89.5644 116.232 89.735C116.701 89.9057 117.202 89.991 117.736 89.991C118.333 89.991 118.866 89.9377 119.336 89.831C119.805 89.703 120.2 89.5004 120.52 89.223C120.84 88.9457 121.085 88.5937 121.256 88.167C121.448 87.7404 121.544 87.2177 121.544 86.599V85.991H117.32V82.055H127.112V89.671C127.112 90.6737 127.133 91.5057 127.176 92.167C127.218 92.807 127.272 93.479 127.336 94.183H124.072L123.24 91.751C122.578 92.583 121.661 93.255 120.488 93.767C119.336 94.2577 118.152 94.503 116.936 94.503H116.648ZM130.033 94.183V89.863H132.625V76.551H130.033V72.231H141.265V76.551H138.673V89.863H141.265V94.183H130.033ZM144.643 94.183V72.231H149.699L156.099 81.543L157.123 83.495L157.283 83.399V72.231H162.819V94.183H157.635L151.043 84.519L150.339 83.143L150.179 83.207V94.183H144.643ZM166.925 94.183V72.231H182.989L182.413 76.839H172.877V80.775H181.933V85.223H172.877V89.575H182.445L183.053 94.183H166.925ZM186.081 94.183V72.231H202.145L201.569 76.839H192.033V80.775H201.089V85.223H192.033V89.575H201.601L202.209 94.183H186.081ZM220.981 94.471C220.085 94.471 219.317 94.343 218.677 94.087C218.058 93.831 217.578 93.4044 217.237 92.807C216.896 92.2097 216.725 91.3884 216.725 90.343C216.725 89.8737 216.682 89.3937 216.597 88.903C216.533 88.391 216.384 87.9324 216.149 87.527C215.936 87.1004 215.626 86.759 215.221 86.503C214.837 86.247 214.336 86.119 213.717 86.119H211.157V94.183H205.237V72.231H217.109C218.154 72.231 219.136 72.4444 220.053 72.871C220.97 73.2977 221.717 73.9164 222.293 74.727C222.869 75.5164 223.157 76.4977 223.157 77.671C223.157 78.6524 222.976 79.5377 222.613 80.327C222.272 81.1164 221.802 81.7884 221.205 82.343C220.608 82.8764 219.957 83.2817 219.253 83.559V83.719C219.786 83.8897 220.266 84.135 220.693 84.455C221.12 84.7537 221.482 85.127 221.781 85.575C222.101 86.023 222.336 86.5137 222.485 87.047C222.656 87.5804 222.741 88.1457 222.741 88.743C222.741 89.1484 222.752 89.575 222.773 90.023C222.816 90.4497 222.89 90.8444 222.997 91.207C223.104 91.5697 223.264 91.8897 223.477 92.167C223.712 92.423 224.01 92.6044 224.373 92.711V93.927C223.882 94.119 223.328 94.2577 222.709 94.343C222.112 94.4284 221.536 94.471 220.981 94.471ZM211.157 81.671H214.965C215.349 81.671 215.701 81.5537 216.021 81.319C216.341 81.063 216.586 80.7324 216.757 80.327C216.949 79.9217 217.045 79.4737 217.045 78.983C217.045 78.2364 216.853 77.6817 216.469 77.319C216.085 76.9564 215.616 76.775 215.061 76.775H211.157V81.671Z" fill="black"/>
<rect x="27" y="24" width="2" height="12" rx="1" fill="black"/>
<rect x="8" y="32.1213" width="2" height="12" rx="1" transform="rotate(-45 8 32.1213)" fill="black"/>
<rect y="52" width="2" height="12" rx="1" transform="rotate(-90 0 52)" fill="black"/>
<rect x="264.34" y="139.022" width="1.03448" height="6.20691" rx="0.517242" transform="rotate(163.254 264.34 139.022)" fill="black"/>
<rect x="272.54" y="132.168" width="1.03448" height="6.2069" rx="0.517242" transform="rotate(118.254 272.54 132.168)" fill="black"/>
<rect x="273.54" y="121.13" width="1.03448" height="6.20691" rx="0.517242" transform="rotate(73.2539 273.54 121.13)" fill="black"/>
<defs>
<filter id="filter0_d_74_5" x="20" y="28" width="119.497" height="52.0311" filterUnits="userSpaceOnUse" color-interpolation-filters="sRGB">
<feFlood flood-opacity="0" result="BackgroundImageFix"/>
<feColorMatrix in="SourceAlpha" type="matrix" values="0 0 0 0 0 0 0 0 0 0 0 0 0 0 0 0 0 0 127 0" result="hardAlpha"/>
<feOffset dx="4" dy="4"/>
<feComposite in2="hardAlpha" operator="out"/>
<feColorMatrix type="matrix" values="0 0 0 0 0 0 0 0 0 0 0 0 0 0 0 0 0 0 1 0"/>
<feBlend mode="normal" in2="BackgroundImageFix" result="effect1_dropShadow_74_5"/>
<feBlend mode="normal" in="SourceGraphic" in2="effect1_dropShadow_74_5" result="shape"/>
</filter>
<filter id="filter1_d_74_5" x="221.627" y="101.669" width="42.8308" height="35.4513" filterUnits="userSpaceOnUse" color-interpolation-filters="sRGB">
<feFlood flood-opacity="0" result="BackgroundImageFix"/>
<feColorMatrix in="SourceAlpha" type="matrix" values="0 0 0 0 0 0 0 0 0 0 0 0 0 0 0 0 0 0 127 0" result="hardAlpha"/>
<feOffset dx="2" dy="3"/>
<feComposite in2="hardAlpha" operator="out"/>
<feColorMatrix type="matrix" values="0 0 0 0 0 0 0 0 0 0 0 0 0 0 0 0 0 0 1 0"/>
<feBlend mode="normal" in2="BackgroundImageFix" result="effect1_dropShadow_74_5"/>
<feBlend mode="normal" in="SourceGraphic" in2="effect1_dropShadow_74_5" result="shape"/>
</filter>
<filter id="filter2_d_74_5" x="36.0399" y="107.013" width="52.7319" height="40.4751" filterUnits="userSpaceOnUse" color-interpolation-filters="sRGB">
<feFlood flood-opacity="0" result="BackgroundImageFix"/>
<feColorMatrix in="SourceAlpha" type="matrix" values="0 0 0 0 0 0 0 0 0 0 0 0 0 0 0 0 0 0 127 0" result="hardAlpha"/>
<feOffset dx="2" dy="3"/>
<feComposite in2="hardAlpha" operator="out"/>
<feColorMatrix type="matrix" values="0 0 0 0 0 0 0 0 0 0 0 0 0 0 0 0 0 0 1 0"/>
<feBlend mode="normal" in2="BackgroundImageFix" result="effect1_dropShadow_74_5"/>
<feBlend mode="normal" in="SourceGraphic" in2="effect1_dropShadow_74_5" result="shape"/>
</filter>
<filter id="filter3_d_74_5" x="234.701" y="57.7854" width="26.7047" height="27.7047" filterUnits="userSpaceOnUse" color-interpolation-filters="sRGB">
<feFlood flood-opacity="0" result="BackgroundImageFix"/>
<feColorMatrix in="SourceAlpha" type="matrix" values="0 0 0 0 0 0 0 0 0 0 0 0 0 0 0 0 0 0 127 0" result="hardAlpha"/>
<feOffset dx="2" dy="3"/>
<feComposite in2="hardAlpha" operator="out"/>
<feColorMatrix type="matrix" values="0 0 0 0 0 0 0 0 0 0 0 0 0 0 0 0 0 0 1 0"/>
<feBlend mode="normal" in2="BackgroundImageFix" result="effect1_dropShadow_74_5"/>
<feBlend mode="normal" in="SourceGraphic" in2="effect1_dropShadow_74_5" result="shape"/>
</filter>
<filter id="filter4_d_74_5" x="57.6376" y="62.3648" width="179.915" height="44.9105" filterUnits="userSpaceOnUse" color-interpolation-filters="sRGB">
<feFlood flood-opacity="0" result="BackgroundImageFix"/>
<feColorMatrix in="SourceAlpha" type="matrix" values="0 0 0 0 0 0 0 0 0 0 0 0 0 0 0 0 0 0 127 0" result="hardAlpha"/>
<feOffset dx="4" dy="4"/>
<feComposite in2="hardAlpha" operator="out"/>
<feColorMatrix type="matrix" values="0 0 0 0 0 0 0 0 0 0 0 0 0 0 0 0 0 0 1 0"/>
<feBlend mode="normal" in2="BackgroundImageFix" result="effect1_dropShadow_74_5"/>
<feBlend mode="normal" in="SourceGraphic" in2="effect1_dropShadow_74_5" result="shape"/>
</filter>
</defs>
</svg>
