<svg width="20" height="20" viewBox="0 0 20 20" fill="none" xmlns="http://www.w3.org/2000/svg">
<path d="M4.68188 4.24373C4.62271 4.21485 4.55621 4.20446 4.49105 4.21393C4.42589 4.2234 4.3651 4.25228 4.31659 4.2968C4.26809 4.34133 4.23412 4.39944 4.21913 4.46356C4.20414 4.52767 4.20881 4.59481 4.23254 4.65623L6.10294 9.674C6.21325 9.9702 6.21325 10.2962 6.10294 10.5924L4.2332 15.6102C4.20959 15.6715 4.20498 15.7386 4.21996 15.8026C4.23495 15.8666 4.26884 15.9246 4.31723 15.9691C4.36562 16.0135 4.42627 16.0424 4.4913 16.052C4.55633 16.0616 4.62274 16.0514 4.68188 16.0227L16.524 10.4306C16.5803 10.4039 16.6279 10.3618 16.6613 10.3092C16.6946 10.2566 16.7123 10.1955 16.7123 10.1332C16.7123 10.0709 16.6946 10.0099 16.6613 9.95722C16.6279 9.90457 16.5803 9.86248 16.524 9.83584L4.68188 4.24373Z" stroke="black" stroke-width="1.5" stroke-linecap="round" stroke-linejoin="round"/>
<path d="M6.18584 10.1332H16.7122" stroke="black" stroke-width="1.5" stroke-linecap="round" stroke-linejoin="round"/>
</svg>
