<svg width="152" height="138" viewBox="0 0 152 138" fill="none" xmlns="http://www.w3.org/2000/svg">
<path d="M73.3389 31.2539L73.8408 32.1504L74.7236 31.625L103.476 14.501L103.022 47.9639L103.009 48.9912L104.036 48.9775L137.498 48.5234L120.375 77.2764L119.85 78.1592L120.746 78.6611L149.951 95L120.746 111.339L119.85 111.841L120.375 112.724L137.498 141.476L104.036 141.022L103.009 141.009L103.022 142.036L103.476 175.498L74.7236 158.375L73.8408 157.85L73.3389 158.746L57 187.951L40.6611 158.746L40.1592 157.85L39.2764 158.375L10.5234 175.498L10.9775 142.036L10.9912 141.009L9.96387 141.022L-23.499 141.476L-6.375 112.724L-5.84961 111.841L-6.74609 111.339L-35.9521 95L-6.74609 78.6611L-5.84961 78.1592L-6.375 77.2764L-23.499 48.5234L9.96387 48.9775L10.9912 48.9912L10.9775 47.9639L10.5234 14.501L39.2764 31.625L40.1592 32.1504L40.6611 31.2539L57 2.04785L73.3389 31.2539Z" fill="#5294FF" stroke="black" stroke-width="2"/>
</svg>
